<svg xmlns="http://www.w3.org/2000/svg" viewBox="0 0 1200 800" preserveAspectRatio="xMidYMid slice">
  <defs>
    <radialGradient id="sky" cx="50%" cy="42%" r="70%">
      <stop offset="0%" stop-color="#0b1028"/>
      <stop offset="70%" stop-color="#050816"/>
      <stop offset="100%" stop-color="#02040c"/>
    </radialGradient>
  </defs>
  <rect width="1200" height="800" fill="url(#sky)"/>
  <g fill="#fff7d6" opacity="0.85">
    <circle cx="180" cy="520" r="1.2"/>
    <circle cx="260" cy="460" r="1.6"/>
    <circle cx="340" cy="500" r="1"/>
    <circle cx="420" cy="410" r="1.8"/>
    <circle cx="510" cy="450" r="1.1"/>
    <circle cx="600" cy="360" r="2"/>
    <circle cx="690" cy="400" r="1.2"/>
    <circle cx="790" cy="300" r="1.7"/>
    <circle cx="890" cy="330" r="1.3"/>
    <circle cx="1000" cy="230" r="1.5"/>
    <circle cx="220" cy="580" r="0.8"/>
    <circle cx="480" cy="520" r="0.7"/>
    <circle cx="720" cy="480" r="0.9"/>
    <circle cx="940" cy="420" r="0.8"/>
    <circle cx="110" cy="640" r="0.6"/>
    <circle cx="550" cy="620" r="0.7"/>
    <circle cx="860" cy="560" r="0.6"/>
    <circle cx="1050" cy="500" r="0.8"/>
    <circle cx="150" cy="300" r="0.5"/>
    <circle cx="380" cy="280" r="0.6"/>
    <circle cx="650" cy="220" r="0.5"/>
    <circle cx="920" cy="180" r="0.7"/>
    <circle cx="1080" cy="280" r="0.5"/>
  </g>
  <g fill="#f6df9a" opacity="0.55">
    <circle cx="300" cy="430" r="0.6"/>
    <circle cx="470" cy="380" r="0.5"/>
    <circle cx="640" cy="340" r="0.7"/>
    <circle cx="820" cy="280" r="0.5"/>
    <circle cx="960" cy="260" r="0.6"/>
  </g>
</svg>
